Coordinates
version=1
nRows=13
nColumns=36
inDegrees=yes

Units are S.I. units (second, meters, Newtons, ...)
If the header above contains a line with 'inDegrees', this indicates whether rotational values are in degrees (yes) or radians (no).

endheader
time	pelvis_tilt	pelvis_list	pelvis_rotation	pelvis_tx	pelvis_ty	pelvis_tz	hip_flexion_r	hip_adduction_r	hip_rotation_r	knee_angle_r	knee_angle_r_beta	ankle_angle_r	subtalar_angle_r	mtp_angle_r	hip_flexion_l	hip_adduction_l	hip_rotation_l	knee_angle_l	knee_angle_l_beta	ankle_angle_l	subtalar_angle_l	mtp_angle_l	lumbar_extension	lumbar_bending	lumbar_rotation	arm_flex_r	arm_add_r	arm_rot_r	elbow_flex_r	pro_sup_r	arm_flex_l	arm_add_l	arm_rot_l	elbow_flex_l	pro_sup_l
      0.00000000	     -4.88687157	      0.76088639	      8.30079659	     -0.33966523	      1.24945677	     -0.03090252	      2.82033930	      0.60620594	      7.19577772	      1.73192836	      0.03022785	     12.32426398	     -9.80032244	     -6.15368341	      2.29335246	     -0.21408669	      4.41186031	      2.83241086	      0.04943490	     -0.64345735	    -12.24311173	     -6.15368341	     -2.60698489	     -0.84445121	     -6.78682145	     -3.08268770	     -7.00927237	     10.54053479	     22.15187709	     74.97692273	     -9.34200578	    -13.97436745	      6.23108719	     40.25545377	     75.38221611
      0.01666670	     -6.86495345	      0.81186623	      8.16493078	     -0.33878373	      1.24641652	     -0.03127614	      4.50467772	      0.21432141	      7.04883187	      1.02887909	      0.01795733	     12.88279300	     -7.54349802	     -6.61173663	      4.35241487	      0.24889157	      3.15791272	      2.39313754	      0.04176813	     -0.28890555	     -9.47900320	     -6.61173663	      0.37725010	     -1.11553962	     -6.62546305	     -3.63484694	     -5.71681562	      6.54102812	     21.30808498	     73.66798914	    -10.16719204	    -12.16154625	      1.26455010	     39.86411677	     73.73539533
      0.03333330	     -7.54587001	      1.55412181	      7.78955346	     -0.33915504	      1.24542731	     -0.02969141	      4.80780877	     -0.62969229	      6.48421922	      0.58927023	      0.01028471	     12.92681739	     -6.49667961	     -6.99050786	      4.82269560	      0.88070643	      1.37840545	      2.04736001	      0.03573317	      0.43604972	     -7.06551994	     -6.99050786	      0.90372095	     -2.47140487	     -5.80009764	     -4.70480635	     -4.44760325	     -1.62791544	     23.02955920	     84.93399981	    -10.81160641	    -12.10980083	     -2.18691583	     41.29431883	     83.69278340
      0.05000000	     -7.68464677	      2.18953635	      7.50973695	     -0.33960634	      1.24373014	     -0.02882978	      4.82707411	     -1.31007423	      5.93752717	      0.45296418	      0.00790572	     13.33012285	     -5.30251224	     -7.36507228	      4.54144889	      1.47379574	      0.38410450	      1.33310796	      0.02326712	      0.41112153	     -6.23495706	     -7.36507228	      0.87942894	     -3.43132387	     -5.42302594	     -4.84671821	     -4.34831784	     -0.39181317	     23.33371987	     79.98892993	    -11.43488829	    -12.96396157	     -0.94435254	     42.59401793	     78.31560504
      0.06666670	     -7.84154035	      2.53308616	      7.06492317	     -0.33993863	      1.24399450	     -0.02769838	      4.94212974	     -1.63294904	      5.77695816	      0.38506803	      0.00672070	     13.57058711	     -4.53680816	     -7.37129211	      4.44547256	      1.76467016	     -0.58183192	      1.06036225	      0.01850681	      1.20887956	     -4.69578196	     -7.37129211	      0.88962415	     -3.82568640	     -4.87107243	     -5.26674097	     -4.23807644	     -1.48238524	     24.45987959	     80.89759160	    -11.85270927	    -12.90111961	     -2.06092149	     43.51808069	     79.37649759
      0.08333330	     -7.88764789	      2.65312818	      6.53033355	     -0.34022043	      1.24384571	     -0.02716534	      4.96507786	     -1.66515917	      6.16609886	      0.35319272	      0.00616438	     13.83934316	     -4.02860027	     -7.41471084	      4.35119433	      1.76969698	     -0.25876592	      1.14976170	      0.02006713	      1.96169496	     -4.22190717	     -7.41471084	      0.79542782	     -3.83303210	     -4.58206160	     -5.29527133	     -3.97946353	     -4.60927158	     25.13483330	     88.28506835	    -12.43426289	    -12.59496995	     -4.20813555	     43.83553579	     86.89741110
      0.10000000	     -7.85255929	      2.68782924	      6.26401624	     -0.34051694	      1.24395140	     -0.02659922	      4.88631639	     -1.64355959	      6.34072221	      0.33172231	      0.00578965	     14.16107086	     -3.62388910	     -7.42065126	      4.32239717	      1.72151795	      0.33281309	      1.35219052	      0.02360018	      2.61182743	     -4.09221050	     -7.42065126	      0.69597642	     -3.74307576	     -4.37367564	     -5.21160670	     -4.00193839	     -4.66865713	     25.31167083	     87.43953766	    -12.55083048	    -12.66481975	     -4.07690903	     43.88441215	     86.03958273
      0.11666670	     -7.93071780	      2.66858268	      6.00441015	     -0.34802509	      1.24359332	     -0.02932981	      5.07651174	     -1.64934153	      6.63485810	      0.33037493	      0.00576613	     14.23776081	     -3.56787681	     -7.42164540	      4.63622982	      1.71736478	      0.81122388	      1.65452856	      0.02887697	      3.45157350	     -3.84425489	     -7.42164540	      0.46943984	     -3.50985087	     -4.16681334	     -4.84138279	     -4.22434920	     -4.63475689	     25.50283189	     87.53959946	    -12.45187318	    -12.63008836	     -4.14960603	     43.81192569	     86.07053682
      0.13333330	     -7.89884318	      2.72407395	      5.90070069	     -0.34810866	      1.24383002	     -0.02879806	      5.15964093	     -1.73808574	      6.67439134	      0.32269117	      0.00563202	     14.29155753	     -3.39413641	     -7.43236616	      4.81541705	      1.76043438	      0.90606454	      1.92179388	      0.03354163	      3.93673489	     -3.61740742	     -7.43236616	      0.14341338	     -3.48409742	     -4.06115214	     -4.54891198	     -4.30118656	     -4.52850024	     25.65870501	     86.01753415	    -12.22778201	    -12.62348055	     -4.06348236	     43.52446142	     84.51891043
      0.15000000	     -7.90145290	      2.73724580	      5.76583720	     -0.34809130	      1.24397349	     -0.02886154	      5.22435712	     -1.82622446	      6.38213535	      0.32718279	      0.00571042	     14.17030827	     -3.00745073	     -7.44270957	      4.99001389	      1.77062398	      1.19873613	      2.21870870	      0.03872377	      4.10771661	     -3.85794871	     -7.44270957	     -0.03677544	     -3.38065725	     -3.91943932	     -4.25957810	     -4.42359270	     -4.28887481	     25.82354127	     84.55374665	    -12.09211956	    -12.59977309	     -3.87785650	     43.30612692	     83.05054664
      0.16666670	     -7.98642979	      2.73159990	      5.62848883	     -0.34808859	      1.24425609	     -0.02850123	      5.43149402	     -1.90159412	      6.56957232	      0.33406646	      0.00583056	     13.85509991	     -3.35723967	     -7.45791283	      5.24434800	      1.77794473	      1.41315844	      2.48098772	      0.04330140	      4.14247390	     -4.48209892	     -7.45791283	     -0.15666232	     -3.29552132	     -4.12659728	     -3.90435183	     -4.63546120	     -3.45303359	     25.56155497	     88.84700713	    -12.24456376	    -12.39938973	     -4.86160132	     43.25794591	     87.02227031
      0.18333330	     -7.87729073	      2.72498997	      5.55962030	     -0.34809911	      1.24469252	     -0.02860654	      5.33472031	     -1.91788692	      6.31841237	      0.33382506	      0.00582635	     13.72746311	     -3.10442143	     -7.46213821	      5.24553404	      1.75882554	      1.49653497	      2.64005453	      0.04607764	      4.08749633	     -4.74935474	     -7.46213821	     -0.44974040	     -3.19175711	     -4.00037235	     -3.84878581	     -4.64234725	     -3.62198764	     25.75053847	     87.02466803	    -12.02928295	    -12.35855665	     -4.65769506	     42.97580537	     85.39886485
      0.20000000	     -8.00720503	      2.71590440	      5.48634174	     -0.34797703	      1.24484518	     -0.02826626	      5.54399369	     -1.90587178	      6.20176091	      0.33561853	      0.00585765	     13.59155432	     -2.92910268	     -7.46701307	      5.53044423	      1.76232438	      1.57666293	      2.85413335	      0.04981402	      4.03938591	     -5.14453112	     -7.46701307	     -0.31084324	     -3.15135142	     -3.86364451	     -3.76004792	     -4.78323483	     -2.89559835	     25.39632447	     87.31322365	    -11.61814446	    -12.52527392	     -3.86530408	     42.13518631	     85.81810353
